<?xml version="1.0" encoding="UTF-8"?>
<svg id="Layer_1" data-name="Layer 1" xmlns="http://www.w3.org/2000/svg" xmlns:xlink="http://www.w3.org/1999/xlink" viewBox="0 0 1000 1000">
  <defs>
    <style>
      .cls-1, .cls-2, .cls-3, .cls-4, .cls-5, .cls-6, .cls-7, .cls-8, .cls-9, .cls-10, .cls-11, .cls-12, .cls-13, .cls-14, .cls-15, .cls-16, .cls-17, .cls-18 {
        stroke: #231f20;
        stroke-miterlimit: 10;
      }

      .cls-1, .cls-9 {
        fill: none;
      }

      .cls-2 {
        fill: url(#linear-gradient-4);
      }

      .cls-2, .cls-4, .cls-5, .cls-6, .cls-7, .cls-8, .cls-10, .cls-11, .cls-12, .cls-13, .cls-14, .cls-15, .cls-16, .cls-17, .cls-18 {
        stroke-width: .75px;
      }

      .cls-3 {
        fill: url(#linear-gradient-8);
      }

      .cls-4 {
        fill: url(#linear-gradient-11);
      }

      .cls-5 {
        fill: url(#linear-gradient);
      }

      .cls-6 {
        fill: url(#linear-gradient-14);
      }

      .cls-7 {
        fill: url(#linear-gradient-6);
      }

      .cls-8 {
        fill: url(#linear-gradient-3);
      }

      .cls-9 {
        stroke-width: 2px;
      }

      .cls-10 {
        fill: url(#linear-gradient-13);
      }

      .cls-11 {
        fill: url(#linear-gradient-10);
      }

      .cls-12 {
        fill: url(#linear-gradient-15);
      }

      .cls-13 {
        fill: url(#linear-gradient-16);
      }

      .cls-14 {
        fill: url(#linear-gradient-7);
      }

      .cls-15 {
        fill: url(#linear-gradient-2);
      }

      .cls-16 {
        fill: url(#linear-gradient-5);
      }

      .cls-17 {
        fill: url(#linear-gradient-9);
      }

      .cls-18 {
        fill: url(#linear-gradient-12);
      }
    </style>
    <linearGradient id="linear-gradient" x1="787.82" y1="756.36" x2="790.89" y2="704.08" gradientUnits="userSpaceOnUse">
      <stop offset=".04" stop-color="#c5ae20"/>
      <stop offset=".09" stop-color="#ccb61b"/>
      <stop offset=".29" stop-color="#e2d00f"/>
      <stop offset=".48" stop-color="#f2e306"/>
      <stop offset=".69" stop-color="#fbee01"/>
      <stop offset=".91" stop-color="#fff200"/>
    </linearGradient>
    <linearGradient id="linear-gradient-2" x1="446.78" y1="766.28" x2="577.33" y2="798.32" gradientUnits="userSpaceOnUse">
      <stop offset="0" stop-color="#fff200"/>
      <stop offset=".21" stop-color="#fbee01"/>
      <stop offset=".4" stop-color="#f2e306"/>
      <stop offset=".58" stop-color="#e2d00f"/>
      <stop offset=".76" stop-color="#ccb61b"/>
      <stop offset=".81" stop-color="#c5ae20"/>
    </linearGradient>
    <linearGradient id="linear-gradient-3" x1="445.18" y1="712.66" x2="391.78" y2="871.7" xlink:href="#linear-gradient-2"/>
    <linearGradient id="linear-gradient-4" x1="255.3" y1="672.54" x2="340.76" y2="538.43" gradientUnits="userSpaceOnUse">
      <stop offset="0" stop-color="#fff200"/>
      <stop offset=".31" stop-color="#f0e008"/>
      <stop offset=".94" stop-color="#c9b31d"/>
      <stop offset="1" stop-color="#c5ae20"/>
    </linearGradient>
    <linearGradient id="linear-gradient-5" x1="142.15" y1="481.31" x2="359.2" y2="481.31" gradientUnits="userSpaceOnUse">
      <stop offset="0" stop-color="#fff200"/>
      <stop offset=".23" stop-color="#fbed02"/>
      <stop offset=".48" stop-color="#efe008"/>
      <stop offset=".75" stop-color="#ddca12"/>
      <stop offset="1" stop-color="#c5ae20"/>
    </linearGradient>
    <linearGradient id="linear-gradient-6" x1="273.37" y1="504.59" x2="141.64" y2="561.56" gradientUnits="userSpaceOnUse">
      <stop offset="0" stop-color="#fff200"/>
      <stop offset=".23" stop-color="#fbed02"/>
      <stop offset=".48" stop-color="#efe008"/>
      <stop offset=".75" stop-color="#ddca12"/>
      <stop offset="1" stop-color="#c5ae20"/>
    </linearGradient>
    <linearGradient id="linear-gradient-7" x1="136.46" y1="375.32" x2="308.27" y2="375.32" gradientUnits="userSpaceOnUse">
      <stop offset=".19" stop-color="#c5ae20"/>
      <stop offset=".25" stop-color="#ccb71f"/>
      <stop offset=".49" stop-color="#e9dc1b"/>
      <stop offset=".62" stop-color="#f4eb1a"/>
    </linearGradient>
    <linearGradient id="linear-gradient-8" x1="512.9" y1="630.42" x2="447.01" y2="793.21" gradientUnits="userSpaceOnUse">
      <stop offset="0" stop-color="#fff200"/>
      <stop offset=".13" stop-color="#faed02"/>
      <stop offset=".28" stop-color="#eedf08"/>
      <stop offset=".45" stop-color="#dbc813"/>
      <stop offset=".59" stop-color="#c5ae20"/>
    </linearGradient>
    <linearGradient id="linear-gradient-9" x1="704.22" y1="803.07" x2="710.79" y2="691.48" xlink:href="#linear-gradient"/>
    <linearGradient id="linear-gradient-10" x1="333.98" y1="206.6" x2="337.55" y2="145.98" xlink:href="#linear-gradient"/>
    <linearGradient id="linear-gradient-11" x1="236.18" y1="818.95" x2="459.3" y2="662.29" gradientUnits="userSpaceOnUse">
      <stop offset="0" stop-color="#fff200"/>
      <stop offset=".28" stop-color="#fcef01"/>
      <stop offset=".45" stop-color="#f5e705"/>
      <stop offset=".59" stop-color="#e9d80b"/>
      <stop offset=".72" stop-color="#d8c415"/>
      <stop offset=".82" stop-color="#c5ae20"/>
    </linearGradient>
    <linearGradient id="linear-gradient-12" x1="462.93" y1="555.82" x2="213.7" y2="787.25" gradientUnits="userSpaceOnUse">
      <stop offset="0" stop-color="#fff200"/>
      <stop offset=".18" stop-color="#fcef01"/>
      <stop offset=".31" stop-color="#f4e505"/>
      <stop offset=".43" stop-color="#e7d60d"/>
      <stop offset=".53" stop-color="#d4c017"/>
      <stop offset=".6" stop-color="#c5ae20"/>
    </linearGradient>
    <linearGradient id="linear-gradient-13" x1="314.12" y1="804.35" x2="246.47" y2="667.87" xlink:href="#linear-gradient-6"/>
    <linearGradient id="linear-gradient-14" x1="515.55" y1="908.65" x2="653.22" y2="759.11" xlink:href="#linear-gradient-2"/>
    <linearGradient id="linear-gradient-15" x1="204.4" y1="237.18" x2="336.29" y2="237.18" gradientUnits="userSpaceOnUse">
      <stop offset=".21" stop-color="#c5ae20"/>
      <stop offset=".22" stop-color="#c6af1f"/>
      <stop offset=".48" stop-color="#dfcf1c"/>
      <stop offset=".69" stop-color="#eee31a"/>
      <stop offset=".83" stop-color="#f4eb1a"/>
    </linearGradient>
    <linearGradient id="linear-gradient-16" x1="361.9" y1="354.84" x2="246.78" y2="337.04" gradientUnits="userSpaceOnUse">
      <stop offset=".13" stop-color="#c5ae20"/>
      <stop offset=".63" stop-color="#e1cf16"/>
      <stop offset="1" stop-color="#f9ec0f"/>
    </linearGradient>
  </defs>
  <path class="cls-5" d="m837.07,706.94l-26.66,6.89c-11.64,3.01-23.45,5.36-35.37,7.04l-33.89,4.79c-3.85.75-4.37,5.92-.74,7.39l58.05,23.48c3.58,1.45,7.72.39,10.11-2.6l32.52-40.66c2.32-2.9-.31-7.05-4.01-6.33Z"/>
  <path class="cls-15" d="m575.83,714.03l-58.8,154.86c-1.33,3.5-6.41,3.49-7.72-.02l-37.28-99.81c-1.46-3.91.22-8.27,3.95-10.28l93.31-50.25c3.73-2.01,8.02,1.59,6.54,5.49Z"/>
  <path class="cls-8" d="m457.76,757.72l41.73,112.35c1.35,3.63-1.79,7.35-5.71,6.74l-41.76-6.45c-34.58-5.34-68.08-15.98-99.26-31.52l-46.35-23.11c-3.59-1.79-3.33-6.88.42-8.31l141.34-53.94c3.85-1.47,8.19.45,9.6,4.24Z"/>
  <path class="cls-2" d="m393.74,595.66l-197.34,87.78c-4.93,2.19-10.74.2-13.2-4.53l-6.43-12.38c-2.76-5.32-2.29-11.7,1.22-16.57l92.05-127.62c3.39-4.7,9.41-6.83,15.08-5.34l72.24,18.96c8.59,2.26,16.09,7.43,21.14,14.6l19.97,28.33c4.1,5.82,1.83,13.86-4.74,16.78Z"/>
  <path class="cls-16" d="m358.52,511.73l-31.69-62.91c-2.4-4.76-7.69-7.66-13.34-7.31l-166.68,10.25c-5.5.34-6.43,7.48-1.18,9.03l204.29,60.03c5.9,1.73,11.21-3.88,8.59-9.08Z"/>
  <path class="cls-7" d="m257.91,520.59l-84.24,116.41c-4.47,6.18-14.29,4.5-16.34-2.79l-12.54-44.56c-7.91-28.12-11.51-57.22-10.69-86.37l.66-23.49c.18-6.45,6.74-10.87,12.99-8.75l105.65,35.88c5.79,1.97,8.03,8.79,4.5,13.67Z"/>
  <path class="cls-14" d="m302.61,432.62l-157.51,8.8c-5.27.29-9.43-4.29-8.51-9.35l1.05-5.77c7.27-39.75,22.19-77.8,43.97-112.14l.9-1.42c2.62-4.13,8.53-4.78,12.02-1.31l112,111.25c3.61,3.58,1.21,9.64-3.93,9.93Z"/>
  <path class="cls-3" d="m436.66,628.75l25.84,117.09c.88,3.97,5.38,6.05,9.08,4.19l86.87-43.68c3.87-1.95,3.62-7.42-.41-9.03-20.83-8.27-69.07-30.31-114.85-72.15-2.81-2.57-7.34-.09-6.52,3.58Z"/>
  <path class="cls-17" d="m695.95,725.47l-63.79-6.48c-3.91-.4-6.41,3.95-4.03,7l76.01,97.31c2.48,3.17,7.13,3.77,10.37,1.34l11.26-6.52c20.69-11.99,39.65-26.59,56.41-43.42l3.6-3.62c3.55-2.67,2.89-8.08-1.2-9.86l-72.63-31.57c-5.07-2.2-10.47-3.61-15.99-4.17Z"/>
  <path class="cls-11" d="m345.79,201.96l22.83-48.34c1.75-3.71-2.35-7.45-6.03-5.5l-55.84,29.62c-4.06,2.16-4.31,7.76-.46,10.25l26.99,17.44c4.38,2.83,10.31,1.18,12.51-3.47Z"/>
  <path class="cls-4" d="m426.26,624.65l21.53,109.01c.8,4.07-1.43,8.13-5.34,9.7l-144.78,58.15c-4.72,1.9-9.04-3.42-6.08-7.47l125.51-171.34c2.6-3.55,8.3-2.34,9.15,1.95Z"/>
  <path class="cls-18" d="m319.58,640.1l86.55-35.48c4.08-1.67,7.87,2.89,5.35,6.43l-88.17,124.11c-2.28,3.21-7.44,1.74-7.59-2.17l-3.11-82.25c-.17-4.62,2.6-8.87,6.97-10.66Z"/>
  <path class="cls-10" d="m303.73,655.38l4.51,90.47c.21,4.21-1.01,8.36-3.48,11.82l-19.06,26.75c-2.21,3.1-6.56,3.87-9.75,1.74l-3.9-2.62c-30.89-20.71-55.86-48.77-72.53-81.52h0c-1.83-3.59-.23-7.95,3.52-9.59l93.93-41.09c3.09-1.35,6.6.75,6.76,4.05Z"/>
  <line class="cls-1" x1="367.91" y1="149.04" x2="333.57" y2="179.92"/>
  <line class="cls-1" x1="341.92" y1="205.89" x2="333.57" y2="179.92"/>
  <line class="cls-1" x1="303.54" y1="182.81" x2="333.57" y2="179.92"/>
  <line class="cls-9" x1="324.21" y1="219.27" x2="263.06" y2="232.47"/>
  <line class="cls-9" x1="218.9" y1="261.69" x2="263.06" y2="232.47"/>
  <line class="cls-1" x1="188.05" y1="309.19" x2="218.47" y2="395.03"/>
  <line class="cls-1" x1="137.98" y1="438.1" x2="218.47" y2="395.03"/>
  <line class="cls-1" x1="307.65" y1="429.33" x2="218.47" y2="395.03"/>
  <line class="cls-1" x1="142.15" y1="455.48" x2="266.51" y2="477.45"/>
  <line class="cls-1" x1="321.73" y1="443.46" x2="266.51" y2="477.45"/>
  <line class="cls-1" x1="358.05" y1="518.11" x2="266.62" y2="477.56"/>
  <line class="cls-1" x1="259.05" y1="512.38" x2="164.75" y2="554.97"/>
  <line class="cls-1" x1="139.44" y1="471.91" x2="164.75" y2="554.97"/>
  <line class="cls-1" x1="164.64" y1="640.66" x2="164.75" y2="554.97"/>
  <line class="cls-1" x1="275.67" y1="517.77" x2="279.89" y2="599.25"/>
  <line class="cls-1" x1="399.87" y1="589.11" x2="279.89" y2="599.25"/>
  <line class="cls-1" x1="189.18" y1="684.33" x2="279.89" y2="599.25"/>
  <line class="cls-1" x1="411" y1="605.59" x2="343.94" y2="663.42"/>
  <line class="cls-1" x1="315.09" y1="643.43" x2="343.94" y2="663.42"/>
  <line class="cls-1" x1="319.2" y1="736.93" x2="343.94" y2="663.42"/>
  <line class="cls-1" x1="301.32" y1="651.43" x2="248.07" y2="721.01"/>
  <line class="cls-1" x1="199.14" y1="696.61" x2="248.07" y2="721.01"/>
  <line class="cls-1" x1="282.02" y1="787.04" x2="248.07" y2="721.01"/>
  <line class="cls-1" x1="447.14" y1="738.95" x2="385.15" y2="731.05"/>
  <line class="cls-1" x1="422.98" y1="620.62" x2="385.15" y2="731.05"/>
  <line class="cls-1" x1="291.67" y1="799.9" x2="385.15" y2="731.05"/>
  <line class="cls-1" x1="438.3" y1="624.79" x2="489.48" y2="699.93"/>
  <line class="cls-1" x1="561.22" y1="702.54" x2="489.48" y2="699.93"/>
  <line class="cls-1" x1="466.74" y1="750.41" x2="489.48" y2="699.93"/>
  <line class="cls-1" x1="574.24" y1="709.27" x2="516.21" y2="782.34"/>
  <line class="cls-1" x1="471.61" y1="762.95" x2="516.21" y2="782.34"/>
  <line class="cls-1" x1="513.69" y1="871.47" x2="516.21" y2="782.34"/>
  <line class="cls-1" x1="454.44" y1="753.9" x2="404.26" y2="809.9"/>
  <line class="cls-1" x1="498.92" y1="874.61" x2="404.26" y2="809.9"/>
  <line class="cls-1" x1="303.85" y1="811.72" x2="404.26" y2="809.9"/>
  <path class="cls-6" d="m594.71,715.16c3,1.12,6.53,2.42,9.47,3.51,3.97,1.46,7.45,3.99,10.07,7.31l76.88,97.42c2.7,3.42,1.41,8.48-2.6,10.19l-30.71,13.09c-30,12.79-61.82,20.8-94.3,23.74l-25.29,2.29c-4.47.4-7.83-4-6.27-8.2l54.04-145.36c1.3-3.51,5.2-5.29,8.71-3.99Z"/>
  <line class="cls-1" x1="589.02" y1="715.62" x2="607.71" y2="804.12"/>
  <line class="cls-1" x1="533.11" y1="870.66" x2="607.71" y2="804.12"/>
  <line class="cls-1" x1="692.11" y1="829.89" x2="607.71" y2="804.12"/>
  <line class="cls-1" x1="627.47" y1="721.86" x2="715.53" y2="776.42"/>
  <line class="cls-1" x1="787.96" y1="765.33" x2="715.53" y2="776.7"/>
  <line class="cls-1" x1="709.07" y1="826.14" x2="715.53" y2="776.42"/>
  <line class="cls-1" x1="737.95" y1="728.65" x2="791.35" y2="737.86"/>
  <line class="cls-1" x1="841.43" y1="708.94" x2="791.35" y2="737.86"/>
  <line class="cls-1" x1="805.03" y1="756.54" x2="791.35" y2="737.86"/>
  <line class="cls-1" x1="367.94" y1="540.94" x2="279.89" y2="599.25"/>
  <line class="cls-1" x1="702.91" y1="726.64" x2="715.53" y2="776.42"/>
  <line class="cls-9" x1="315.38" y1="413.66" x2="252.22" y2="302.73"/>
  <path class="cls-12" d="m301.89,194.76l31.19,18.84c3.08,1.86,4.1,5.61,2.35,8.61-4.32,7.41-11.65,22-14.04,39.01-.49,3.47-3.38,6.21-7.09,6.67l-105.2,13.22c-3.63.46-6.06-3.39-3.87-6.13,13.09-16.39,47.12-56.41,85.06-80.11,3.5-2.19,8.06-2.25,11.6-.11Z"/>
  <line class="cls-1" x1="319.74" y1="264.95" x2="270.19" y2="238.04"/>
  <line class="cls-1" x1="296.05" y1="193.2" x2="270.19" y2="238.04"/>
  <line class="cls-1" x1="205.28" y1="279.64" x2="271.74" y2="237.06"/>
  <line class="cls-1" x1="336.13" y1="217.75" x2="270.19" y2="238.04"/>
  <path class="cls-13" d="m314.91,278.77l-114.82,9.87c-5,.43-7.2,6.51-3.64,10.04l117.64,116.75c3.5,3.48,9.42.41,8.58-4.45-3.87-22.43-8.68-66.65-1.22-125.38.49-3.84-2.68-7.16-6.54-6.83Z"/>
  <line class="cls-1" x1="320.26" y1="281.15" x2="265.93" y2="319.08"/>
  <line class="cls-1" x1="194.69" y1="291.9" x2="265.93" y2="319.08"/>
  <line class="cls-1" x1="320.43" y1="416.08" x2="265.93" y2="319.08"/>
</svg>